<svg id="Layer_1" data-name="Layer 1" xmlns="http://www.w3.org/2000/svg" viewBox="0 0 85 153.19"><path d="M456.1,207.27c6,0,12,3.61,12,10.71v23.64c0,7.16-5.95,10.78-12,10.78s-11.92-3.62-11.92-10.78V218C444.18,210.88,450.07,207.27,456.1,207.27Zm0,39.86c3.42,0,6.71-1.9,6.71-5.51V218c0-3.55-3.29-5.45-6.71-5.45s-6.79,1.9-6.79,5.45v23.64C449.31,245.23,452.67,247.13,456.1,247.13Z" transform="translate(-444.18 -207.27)"/><path d="M497.68,241.75c0,7.16-6,10.77-12,10.77s-11.92-3.61-11.92-10.77v-34.1h5.14v34.1c.25,3.36,3.67,5.51,6.84,5.51,3.42,0,6.66-1.9,6.66-5.51v-34.1h5.26Z" transform="translate(-444.18 -207.27)"/><path d="M529.18,212.91H518.79V252h-5.2V212.91H503.45v-5.26h25.73Z" transform="translate(-444.18 -207.27)"/><path d="M447.41,302V261.65h5.33l.06,39.1h15.34V306H451.79A4.16,4.16,0,0,1,447.41,302Z" transform="translate(-444.18 -207.27)"/><path d="M496.16,302.4A3.34,3.34,0,0,1,492.8,306a4.3,4.3,0,0,1-3.62-2.29c-3.16-7.79-6.21-16.79-9.5-25.41-1.14-3.05-2.41-9.19-3-10.84l-.76.19,1.52,7.79.25,30.56h-5.39V265.2a3.52,3.52,0,0,1,3.55-3.74c1.53,0,3.43,1,3.74,2.53l-.06-.13,13.06,36.89H493l-1.84-8.36-.25-30.74h5.26Z" transform="translate(-444.18 -207.27)"/><path d="M502.43,301.9V265.7a3.89,3.89,0,0,1,4.06-4.05h9.7a10.75,10.75,0,0,1,10.33,10.52v23.39A10.44,10.44,0,0,1,516.19,306h-9.7A4,4,0,0,1,502.43,301.9Zm5.27-1.15h8.49a5.19,5.19,0,0,0,5.07-5.19V272.23a5.31,5.31,0,0,0-5.07-5.32h-8.56C507.63,278.32,507.7,289.28,507.7,300.75Z" transform="translate(-444.18 -207.27)"/><path d="M470.39,356.4A3.34,3.34,0,0,1,467,360a4.28,4.28,0,0,1-3.61-2.29c-3.17-7.79-6.21-16.79-9.51-25.41-1.14-3.05-2.41-9.19-3-10.84l-.76.19,1.52,7.79.25,30.56h-5.38V319.2a3.51,3.51,0,0,1,3.55-3.74c1.52,0,3.42,1,3.74,2.53l-.07-.12,13.06,36.88h.38l-1.84-8.36-.25-30.74h5.26Z" transform="translate(-444.18 -207.27)"/><path d="M488.33,315.14c5.77,0,11.66,4.25,11.66,12.42h-5.2c0-4.69-3.23-7.16-6.46-7.16s-6.53,1.9-6.53,5.39v3.67c0,3.49,4,4.69,7.1,5.33C494,335.87,500,337.45,500,345.18v4.57c0,7.1-5.95,10.71-11.72,10.71-6,0-11.67-4.25-11.6-12.49h5.13c0,4.76,3.17,7.16,6.47,7.16s6.52-1.9,6.52-5.38v-4.57c0-3.8-3.54-4.62-7-5.19-5.51-1.08-11.09-2.35-11.15-10.53v-3.67C476.67,318.75,482.37,315.14,488.33,315.14Z" transform="translate(-444.18 -207.27)"/><path d="M522.31,340.68h-12V360h-5.2V315.65h5.2v19.84h12V315.65h5.26V360h-5.26Z" transform="translate(-444.18 -207.27)"/></svg>